<svg xmlns="http://www.w3.org/2000/svg" viewBox="0 0 512 122.45"><defs><style>.cls-1{fill:#333;}.cls-2{fill:#74a2d1;}</style></defs><title>streambe_isologotipo</title><g id="Capa_2" data-name="Capa 2"><g id="Capa_1-2" data-name="Capa 1"><path class="cls-1" d="M162.53,57.39a20.29,20.29,0,0,0-6.82-1.26c-5.4,0-7.93,2.19-7.93,4.63,0,2.11.6,3,4,3.46L161,65.57c10.12,1.43,14.33,5.31,14.33,13.32,0,7.83-5.47,15.25-20.82,15.25a58.8,58.8,0,0,1-17.36-2.79V79h10.62v5.14a27.76,27.76,0,0,0,7.84,1.44c2.44,0,8.59-.77,8.59-5.4,0-2.45-1.51-3.71-6.65-4.47l-9.95-1.51c-7.67-1.19-11-5.4-11-11.72C136.66,51.57,146.94,48,156,48A54,54,0,0,1,173.15,51V61.86H162.53Z"/><path class="cls-1" d="M182.23,39.94,194,39.27v9.78h11.81v8.59H194V77.29c0,6.23,1.61,7.75,6.49,7.75a16.9,16.9,0,0,0,5.74-1.35L205.83,92a30.94,30.94,0,0,1-10.29,2.1c-8.68,0-13.31-4-13.31-11.8V57.64h-6V49.05h6Z"/><path class="cls-1" d="M214.17,57.64h-5.73V49.05h17.11a67.34,67.34,0,0,1-.76,10.11H225C226.73,51.74,230.87,48,237.6,48a17.57,17.57,0,0,1,3.88.51l-.76,10.52a21.09,21.09,0,0,0-3.79-.41c-6.4,0-11,4.38-11,11.63V84.53h5.57v8.6H209.37v-8.6h4.8Z"/><path class="cls-1" d="M254.63,73.75c.34,7,5.74,11.29,14,11.29a32.45,32.45,0,0,0,14.24-3l-.59,9.35A43.91,43.91,0,0,1,266,94.14c-17,0-24.19-10.62-24.19-22.84C241.82,57.56,250.17,48,264,48c15.17,0,21.33,11.46,21.33,25.71Zm17.87-8.1c0-6.07-3.45-9.52-8.93-9.52s-8.51,3.53-9,9.52Z"/><path class="cls-1" d="M316.79,65.06c0-6.66-2.79-8.42-8.35-8.42a26.87,26.87,0,0,0-7.34,1.26v5.9H291V52.59A38.66,38.66,0,0,1,308.61,48c11.8,0,19.3,4.13,19.3,16.94,0,7.25-.25,13.31-.42,19.55h5v8.6H317.62V90.44a23.46,23.46,0,0,1,.59-6.08h-.16c-3,6.66-7,9.78-14.41,9.78-9.95,0-14.75-5.9-14.75-12.81,0-6.32,4.21-10.45,8.84-12.14,4.47-1.6,10.46-2,19.06-2Zm-3.46,9.36c-9.61,0-12.65,2-12.65,5.81,0,2.61,1.86,5.32,6.49,5.32s9.45-3,9.45-11.13Z"/><path class="cls-1" d="M392.59,84.53h4.3V66.41c0-6.07-3.2-8.26-7.67-8.26-5.73,0-9.36,4.64-9.36,11.72V84.53h5.06v8.6H363.76v-8.6h4.31V66.41c0-6.07-3.21-8.26-7.67-8.26-6.24,0-9.36,5.06-9.36,11.72V84.53h5.06v8.6H334.43v-8.6h4.8V57.64h-5.72V49.05h17.28a39.6,39.6,0,0,1-.68,8.93h.17c2.44-6.41,7.93-9.94,15.26-9.94s11.79,3.37,13,9.94h.17c2.11-6.15,7-9.94,14.75-9.94,10.45,0,15.26,6.65,15.26,17.19v19.3h5.06v8.6H392.59Z"/><path class="cls-2" d="M422.74,36.9H416V28.31h18.54V45.59c0,3.54-.42,7.5-.84,11.8h.16c2.61-6,7.51-9.35,14.92-9.35,9.7,0,17,7,17,20.14,0,12-5.82,26-24.61,26-7.67,0-15.51-1.94-18.46-3.7Zm11.55,46a19.07,19.07,0,0,0,7.5,1.6c8.51,0,12.22-7.17,12.22-15,0-6.07-2.19-11.89-9.53-11.89-7.83,0-10.19,5.65-10.19,11.13Z"/><path class="cls-2" d="M481.32,73.75c.34,7,5.73,11.29,14,11.29a32.51,32.51,0,0,0,14.24-3L509,91.35a44,44,0,0,1-16.27,2.79c-17,0-24.19-10.62-24.19-22.84,0-13.74,8.35-23.26,22.17-23.26C505.85,48,512,59.5,512,73.75Zm17.87-8.1c0-6.07-3.46-9.52-8.93-9.52s-8.51,3.53-9,9.52Z"/><path class="cls-2" d="M61.23,0a61.23,61.23,0,1,0,61.22,61.22A61.24,61.24,0,0,0,61.23,0ZM15.87,60.61a45.13,45.13,0,0,1,3.15-16,64.33,64.33,0,0,1,58.82,58.88,45.35,45.35,0,0,1-16,3.14A48.22,48.22,0,0,0,15.87,60.61Zm2.72,16.18a32.4,32.4,0,0,1,27,27.06,45.51,45.51,0,0,1-27-27.06ZM93.31,93.31l-.75.72A80.29,80.29,0,0,0,28.45,29.87l.69-.73A45.38,45.38,0,0,1,93.31,93.31Z"/></g></g></svg>